<svg t="1660532176735" class="icon" viewBox="0 0 1024 1024" version="1.1" xmlns="http://www.w3.org/2000/svg" p-id="11025" width="200" height="200"><path d="M465.212 76.87H70.026C31.414 76.87 0 108.284 0 146.896v730.208c0 38.612 31.414 70.026 70.026 70.026h395.184c38.612 0 70.026-31.414 70.026-70.026V146.896c0.002-38.612-31.412-70.026-70.024-70.026z m55.876 800.234c0 30.81-25.068 55.878-55.878 55.878H70.026c-30.81 0-55.878-25.066-55.878-55.878V146.896c0-30.81 25.068-55.878 55.878-55.878h395.184c30.81 0 55.878 25.066 55.878 55.878v730.208z" fill="#4B555F" p-id="11026"></path><path d="M465.216 107.506H70.036c-21.696 0-39.382 17.686-39.382 39.382v730.228c0 21.696 17.686 39.382 39.382 39.382h395.18c21.696 0 39.382-17.686 39.382-39.382V146.888c-0.002-21.696-17.688-39.382-39.382-39.382z m-197.614 755.648c-75.036 0-135.876-60.84-135.876-135.878 0-75.084 60.84-135.926 135.876-135.926 75.084 0 135.924 60.842 135.924 135.926 0 75.038-60.84 135.878-135.924 135.878z m186.2-342.64h-372.4V201.786h372.4v318.728z" fill="#DFDFDE" p-id="11027"></path><path d="M74.348 194.69v332.894h386.542V194.69H74.348z m372.394 318.746H88.498V208.84h358.244v304.596z" fill="#4B555F" p-id="11028"></path><path d="M105.004 225.348h325.23v271.582H105.004z" fill="#F58E70" p-id="11029"></path><path d="M267.602 652.618c-41.166 0-74.66 33.492-74.66 74.66s33.494 74.66 74.66 74.66 74.66-33.492 74.66-74.66-33.494-74.66-74.66-74.66z m0 135.17c-33.366 0-60.51-27.146-60.51-60.51s27.144-60.51 60.51-60.51 60.51 27.146 60.51 60.51-27.142 60.51-60.51 60.51z m0-203.512c-78.824 0-142.952 64.15-142.952 143 0 78.824 64.128 142.952 142.952 142.952 78.848 0 142.998-64.128 142.998-142.952 0-78.85-64.148-143-142.998-143z m0 271.804c-71.022 0-128.802-57.78-128.802-128.802 0-71.048 57.782-128.852 128.802-128.852 71.046 0 128.848 57.802 128.848 128.852 0.002 71.022-57.802 128.802-128.848 128.802z" fill="#4B555F" p-id="11030"></path><path d="M267.602 614.932c-61.92 0-112.296 50.398-112.296 112.344 0 61.92 50.376 112.296 112.296 112.296 61.946 0 112.342-50.376 112.342-112.296 0-61.946-50.396-112.344-112.342-112.344z m0 203.512c-50.27 0-91.166-40.896-91.166-91.166 0-50.27 40.898-91.166 91.166-91.166s91.166 40.896 91.166 91.166c0.002 50.268-40.896 91.166-91.166 91.166z" fill="#FFD351" p-id="11031"></path><path d="M816.74 88.384h-92.57c-59.588 0-108.066 48.476-108.066 108.064v743.61h14.15V196.446c0-51.784 42.132-93.914 93.916-93.914h92.57c70.714 0 128.246 57.53 128.246 128.244v223.868h14.148V230.776c0-78.516-63.876-142.392-142.394-142.392z" fill="#4B555F" p-id="11032"></path><path d="M717.002 88.384v14.148c70.712 0 128.244 57.53 128.244 128.244V727.26h14.148V230.776c0-78.516-63.878-142.392-142.392-142.392zM818.864 817.87c-19.544 0-35.446 15.902-35.446 35.448v50.598c0 19.546 15.902 35.448 35.446 35.448h7.074v-121.492h-7.074z m-7.076 106.136c-8.276-2.924-14.222-10.824-14.222-20.09v-50.598c0-9.266 5.946-17.166 14.222-20.09v90.778z" fill="#4B555F" p-id="11033"></path><path d="M834.9 727.262v51.812c0 33.308-16.036 45.872-16.036 45.872v107.344h18.546c19.054 0 34.5-15.446 34.5-34.5v-170.528H834.9z" fill="#DFDFDE" p-id="11034"></path><path d="M988.552 545.252h-7.074v121.494h7.074c19.546 0 35.448-15.902 35.448-35.448V580.7c0-19.546-15.902-35.448-35.448-35.448z m21.3 86.046c0 9.266-5.948 17.168-14.224 20.09v-90.78c8.276 2.924 14.224 10.826 14.224 20.092v50.598z" fill="#4B555F" p-id="11035"></path><path d="M972.516 506.454v-51.812h-37.008v170.528c0 19.054 15.446 34.5 34.5 34.5h18.544v-107.344c0 0.002-16.036-12.564-16.036-45.872z" fill="#DFDFDE" p-id="11036"></path><path d="M827.826 720.186v58.886c0 28.958-12.848 39.908-13.326 40.304l-2.71 2.124v117.862h25.62c22.922 0 41.574-18.65 41.574-41.574v-177.602h-51.158z m37.008 177.602c0 15.122-12.302 27.426-27.426 27.426h-11.47v-97.286c5.21-5.61 16.038-20.662 16.038-48.854v-44.738h22.858v163.452zM992.916 546.758c-0.134-0.104-13.324-11.254-13.324-40.302v-58.886h-51.156v177.602c0 22.924 18.652 41.574 41.574 41.574h25.618v-117.864l-2.712-2.124z m-11.438 105.838h-11.468c-15.124 0-27.426-12.304-27.426-27.426v-163.454h22.858v44.738c0 28.192 10.826 43.244 16.036 48.854v97.288z" fill="#4B555F" p-id="11037"></path></svg>