<?xml version="1.0" standalone="no"?><!DOCTYPE svg PUBLIC "-//W3C//DTD SVG 1.1//EN" "http://www.w3.org/Graphics/SVG/1.1/DTD/svg11.dtd"><svg t="1687855855403" class="icon" viewBox="0 0 1024 1024" version="1.1" xmlns="http://www.w3.org/2000/svg" p-id="2343" xmlns:xlink="http://www.w3.org/1999/xlink" width="200" height="200"><path d="M469.333333 597.333333c42.666667 0 87.466667 6.826667 136.533334 18.773334-34.56 37.12-51.2 80.64-51.2 130.56 0 37.973333 10.666667 73.813333 33.28 106.666666H128v-85.333333c0-50.773333 38.826667-91.733333 116.906667-122.88C322.986667 613.546667 398.08 597.333333 469.333333 597.333333m0-85.333333c-46.08 0-85.333333-16.64-120.32-49.92C314.88 428.8 298.666667 388.693333 298.666667 341.333333c0-46.08 16.213333-85.333333 50.346666-120.32C384 186.88 423.253333 170.666667 469.333333 170.666667c47.36 0 87.466667 16.213333 120.746667 50.346666C623.36 256 640 295.253333 640 341.333333c0 47.36-16.64 87.466667-49.92 120.746667-33.28 33.28-73.386667 49.92-120.746667 49.92m320-85.333333H938.666667v85.333333h-85.333334v234.666667a106.666667 106.666667 0 0 1-213.333333 0 106.666667 106.666667 0 0 1 149.333333-97.706667V426.666667z" p-id="2344"></path></svg>