<svg t="1660037371019" class="icon" viewBox="0 0 1024 1024" version="1.1" xmlns="http://www.w3.org/2000/svg" p-id="6942" width="200" height="200"><path d="M885.333333 256H138.666667a53.393333 53.393333 0 0 0-53.333334 53.333333v576a53.393333 53.393333 0 0 0 53.333334 53.333334h746.666666a53.393333 53.393333 0 0 0 53.333334-53.333334V309.333333a53.393333 53.393333 0 0 0-53.333334-53.333333z m10.666667 629.333333a10.666667 10.666667 0 0 1-10.666667 10.666667H138.666667a10.666667 10.666667 0 0 1-10.666667-10.666667V309.333333a10.666667 10.666667 0 0 1 10.666667-10.666666h746.666666a10.666667 10.666667 0 0 1 10.666667 10.666666zM610.046667 514.2a107.46 107.46 0 0 0-20.493334-18.78c-8.813333-8.806667-16.526667-20.666667-22.36-34.42-9.033333-21.333333-11.813333-42.666667-12.553333-56.78A21.333333 21.333333 0 0 0 533.333333 384h-0.566666A21.333333 21.333333 0 0 0 512 405.333333v251.56C493.666667 645.946667 471.333333 640 448 640c-27.38 0-53.333333 8.173333-73.14 23.013333-21.333333 16-33.526667 38.666667-33.526667 62.32s12.22 46.34 33.526667 62.32C394.666667 802.493333 420.62 810.666667 448 810.666667s53.333333-8.173333 73.14-23.013334c21.333333-16 33.526667-38.666667 33.526667-62.32V520.6q3.213333 3.58 6.586666 6.813333a21.473333 21.473333 0 0 0 2.953334 2.366667 64.24 64.24 0 0 1 13.333333 12c8.666667 10.22 15.84 24.18 20.733333 40.373333a21.333333 21.333333 0 0 0 40.84-12.346666c-6.693333-22.033333-16.446667-40.753333-29.066666-55.606667zM448 768c-34.666667 0-64-19.54-64-42.666667s29.333333-42.666667 64-42.666666 64 19.54 64 42.666666-29.333333 42.666667-64 42.666667zM170.666667 106.666667a21.333333 21.333333 0 0 1 21.333333-21.333334h640a21.333333 21.333333 0 0 1 0 42.666667H192a21.333333 21.333333 0 0 1-21.333333-21.333333z m-42.666667 85.333333a21.333333 21.333333 0 0 1 21.333333-21.333333h725.333334a21.333333 21.333333 0 0 1 0 42.666666H149.333333a21.333333 21.333333 0 0 1-21.333333-21.333333z" p-id="6943"></path></svg>