<svg t="1660197941984" class="icon" viewBox="0 0 1024 1024" version="1.1" xmlns="http://www.w3.org/2000/svg" p-id="3756" width="200" height="200"><path d="M1012.992 602.496l-90.496 90.496L832 602.496l-90.496 90.496-90.496-90.496L741.504 512l-90.496-90.496 90.496-90.56L832 421.504l90.496-90.56 90.496 90.56L922.496 512 1012.992 602.496zM192 768c-106.048 0-192-86.016-192-192L0 448c0-106.048 85.952-192 192-192l64 0 320-256 0 1024-320-256L192 768zM448 768 448 576 448 448 448 256 320 384 192 384C156.608 384 128 412.672 128 448l0 128c0 35.392 28.608 64 64 64l128 0L448 768z" p-id="3757"></path></svg>