<svg t="1660231693407" class="icon" viewBox="0 0 1024 1024" version="1.1" xmlns="http://www.w3.org/2000/svg" p-id="1389" width="200" height="200"><path d="M512 0C230.4 0 0 230.4 0 512s230.4 512 512 512 512-230.4 512-512S793.6 0 512 0z m0 939.2c-235.2 0-427.2-192-427.2-427.2S276.8 84.8 512 84.8s427.2 192 427.2 427.2-192 427.2-427.2 427.2z" p-id="1390"></path><path d="M670.4 353.6c-17.6-17.6-43.2-17.6-59.2 0L512 452.8l-97.6-97.6c-17.6-17.6-43.2-17.6-59.2 0-17.6 17.6-17.6 43.2 0 59.2l97.6 97.6-97.6 97.6c-17.6 17.6-17.6 43.2 0 59.2 8 8 20.8 12.8 30.4 12.8s20.8-4.8 30.4-12.8l97.6-97.6 97.6 97.6c8 8 20.8 12.8 30.4 12.8s20.8-4.8 30.4-12.8c17.6-17.6 17.6-43.2 0-59.2L571.2 512l97.6-97.6c17.6-17.6 17.6-43.2 1.6-60.8z" p-id="1391"></path></svg>