<svg t="1660488228769" class="icon" viewBox="0 0 1024 1024" version="1.1" xmlns="http://www.w3.org/2000/svg" p-id="4335" width="200" height="200"><path d="M917.333333 896H106.666667a21.333333 21.333333 0 0 1 0-42.666667h810.666666a21.333333 21.333333 0 0 1 0 42.666667zM149.333333 618.666667a21.266667 21.266667 0 0 1-15.086666-6.246667l-42.666667-42.666667a21.333333 21.333333 0 0 1 30.173333-30.173333L149.333333 567.166667l112.913334-112.92a21.333333 21.333333 0 0 1 30.173333 30.173333l-128 128A21.266667 21.266667 0 0 1 149.333333 618.666667z m768-64H405.333333a21.333333 21.333333 0 0 1 0-42.666667h512a21.333333 21.333333 0 0 1 0 42.666667zM149.333333 256a21.266667 21.266667 0 0 1-15.086666-6.246667l-42.666667-42.666666a21.333333 21.333333 0 0 1 30.173333-30.173334L149.333333 204.5l112.913334-112.92a21.333333 21.333333 0 0 1 30.173333 30.173333l-128 128A21.266667 21.266667 0 0 1 149.333333 256z m768-42.666667H405.333333a21.333333 21.333333 0 0 1 0-42.666666h512a21.333333 21.333333 0 0 1 0 42.666666z" p-id="4336"></path></svg>