<svg t="1660548770823" class="icon" viewBox="0 0 1024 1024" version="1.1" xmlns="http://www.w3.org/2000/svg" p-id="2829" width="200" height="200"><path d="M85.333333 725.333333a42.666667 42.666667 0 0 1 42.666667-42.666666h298.666667a42.666667 42.666667 0 1 1 0 85.333333H128a42.666667 42.666667 0 0 1-42.666667-42.666667zM597.333333 682.666667a42.666667 42.666667 0 0 1 42.666667-42.666667h256a42.666667 42.666667 0 1 1 0 85.333333h-256a42.666667 42.666667 0 0 1-42.666667-42.666666z" p-id="2830"></path><path d="M768 512a42.666667 42.666667 0 0 1 42.666667 42.666667v256a42.666667 42.666667 0 1 1-85.333334 0v-256a42.666667 42.666667 0 0 1 42.666667-42.666667zM85.333333 512a42.666667 42.666667 0 0 1 42.666667-42.666667h469.333333a42.666667 42.666667 0 1 1 0 85.333334H128a42.666667 42.666667 0 0 1-42.666667-42.666667zM85.333333 298.666667a42.666667 42.666667 0 0 1 42.666667-42.666667h469.333333a42.666667 42.666667 0 1 1 0 85.333333H128a42.666667 42.666667 0 0 1-42.666667-42.666666z" p-id="2831"></path></svg>